# xmcd CD database file
#
# Track frame offsets:
#	150
#	14385
#	24847
#	34312
#	49762
#	62372
#	75057
#	87875
#	98512
#	114967
#	129240
#	143275
#
# Disc length: 2154 seconds
#
# Revision: 1
# Processed by: cddbd v1.5.2PL0 Copyright (c) Steve Scherf et al.
# Submitted via: CDex 1.51
#
DISCID=7508680c
DTITLE=Nina Simone - High Priestess of Soul [Reissued 2006]
DYEAR=1966
DGENRE=Vocal Standards - Jazz
TTITLE0=Don't You Pay Them No Mind
TTITLE1=I'm Gonna Leave You
TTITLE2=Brown Eyed Handsome Man
TTITLE3=Keeper of the Flame
TTITLE4=The Gal From Joe's
TTITLE5=Take Me to the Water
TTITLE6=I'm Going Back Home
TTITLE7=I Hold No Grudge
TTITLE8=Come Ye
TTITLE9=He Ain't Comin' Home No More
TTITLE10=Work Song
TTITLE11=I Love My Baby
EXTD=YEAR: 1966
EXTT0=
EXTT1=
EXTT2=
EXTT3=
EXTT4=
EXTT5=
EXTT6=
EXTT7=
EXTT8=
EXTT9=
EXTT10=
EXTT11=
PLAYORDER=
